<svg xmlns="http://www.w3.org/2000/svg" viewBox="0 0 120 120" fill="none">
  <defs>
    <path id="nqSq" d="M120 60 L119.94 80.87 L119.75 87.51 L119.45 92.3 L119.02 96.15 L118.46 99.4 L117.77 102.22 L116.95 104.71 L115.99 106.92 L114.89 108.89 L113.64 110.65 L112.23 112.23 L110.65 113.64 L108.89 114.89 L106.92 115.99 L104.71 116.95 L102.22 117.77 L99.4 118.46 L96.15 119.02 L92.3 119.45 L87.51 119.75 L80.87 119.94 L60 120 L39.13 119.94 L32.49 119.75 L27.7 119.45 L23.85 119.02 L20.6 118.46 L17.78 117.77 L15.29 116.95 L13.08 115.99 L11.11 114.89 L9.35 113.64 L7.77 112.23 L6.36 110.65 L5.11 108.89 L4.01 106.92 L3.05 104.71 L2.23 102.22 L1.54 99.4 L0.98 96.15 L0.55 92.3 L0.25 87.51 L0.06 80.87 L0 60 L0.06 39.13 L0.25 32.49 L0.55 27.7 L0.98 23.85 L1.54 20.6 L2.23 17.78 L3.05 15.29 L4.01 13.08 L5.11 11.11 L6.36 9.35 L7.77 7.77 L9.35 6.36 L11.11 5.11 L13.08 4.01 L15.29 3.05 L17.78 2.23 L20.6 1.54 L23.85 0.98 L27.7 0.55 L32.49 0.25 L39.13 0.06 L60 0 L80.87 0.06 L87.51 0.25 L92.3 0.55 L96.15 0.98 L99.4 1.54 L102.22 2.23 L104.71 3.05 L106.92 4.01 L108.89 5.11 L110.65 6.36 L112.23 7.77 L113.64 9.35 L114.89 11.11 L115.99 13.08 L116.95 15.29 L117.77 17.78 L118.46 20.6 L119.02 23.85 L119.45 27.7 L119.75 32.49 L119.94 39.13 L120 60 Z" />
    <clipPath id="nqClip"><use href="#nqSq" /></clipPath>
    <linearGradient id="nqBg" x1="66" y1="6" x2="54" y2="118" gradientUnits="userSpaceOnUse">
      <stop offset="0" stop-color="#0C4E9E" />
      <stop offset="1" stop-color="#07182F" />
    </linearGradient>
    <linearGradient id="nqRoute" x1="39" y1="32" x2="81" y2="88" gradientUnits="userSpaceOnUse">
      <stop offset="0" stop-color="#7DD3FC" />
      <stop offset="1" stop-color="#06B6D4" />
    </linearGradient>
  </defs>
  <use href="#nqSq" fill="url(#nqBg)" />
  <g clip-path="url(#nqClip)">
    <path d="M39 88L39 32" stroke="#FFFFFF" stroke-width="14.5" stroke-linecap="round" fill="none" />
    <path d="M81 88L81 32" stroke="#FFFFFF" stroke-width="14.5" stroke-linecap="round" fill="none" />
    <path d="M39 32L81 88" stroke="url(#nqRoute)" stroke-width="13.5" stroke-linecap="round" fill="none" />
    <circle cx="39" cy="32" r="8.6" fill="#7DD3FC" stroke="#FFFFFF" stroke-width="2.4" />
    <circle cx="81" cy="88" r="9" fill="#06B6D4" stroke="#FFFFFF" stroke-width="2.4" />
  </g>
</svg>
